<?xml version="1.0" encoding="UTF-8" standalone="no"?>
<!DOCTYPE svg PUBLIC "-//W3C//DTD SVG 1.1//EN" "http://www.w3.org/Graphics/SVG/1.1/DTD/svg11.dtd">
<svg version="1.1" xmlns="http://www.w3.org/2000/svg" xmlns:xlink="http://www.w3.org/1999/xlink" preserveAspectRatio="xMidYMid meet" viewBox="0 0 200 200" width="200" height="200"><defs><path d="M0 0L200 0L200 200L0 200L0 0Z" id="bLPt4gYu"></path><path d="M116.16 40.01L116.24 40.01L116.32 40.03L116.4 40.04L116.48 40.06L116.56 40.08L116.63 40.1L116.71 40.13L116.78 40.16L116.85 40.19L116.92 40.22L116.99 40.26L117.05 40.3L117.12 40.34L117.18 40.39L117.24 40.43L117.3 40.48L117.36 40.53L117.41 40.59L117.47 40.64L117.52 40.7L117.57 40.76L117.61 40.82L117.66 40.88L117.7 40.95L117.74 41.01L117.78 41.08L117.81 41.15L117.84 41.22L117.87 41.29L117.9 41.37L117.92 41.44L117.94 41.52L117.96 41.6L117.97 41.68L117.99 41.76L117.99 41.84L118 41.92L118 42L118 82L158 82L158.08 82L158.16 82.01L158.24 82.01L158.32 82.03L158.4 82.04L158.48 82.06L158.56 82.08L158.63 82.1L158.71 82.13L158.78 82.16L158.85 82.19L158.92 82.22L158.99 82.26L159.05 82.3L159.12 82.34L159.18 82.39L159.24 82.43L159.3 82.48L159.36 82.53L159.41 82.59L159.47 82.64L159.52 82.7L159.57 82.76L159.61 82.82L159.66 82.88L159.7 82.95L159.74 83.01L159.78 83.08L159.81 83.15L159.84 83.22L159.87 83.29L159.9 83.37L159.92 83.44L159.94 83.52L159.96 83.6L159.97 83.68L159.99 83.76L159.99 83.84L160 83.92L160 84L160 116L160 116.08L159.99 116.16L159.99 116.24L159.97 116.32L159.96 116.4L159.94 116.48L159.92 116.56L159.9 116.63L159.87 116.71L159.84 116.78L159.81 116.85L159.78 116.92L159.74 116.99L159.7 117.05L159.66 117.12L159.61 117.18L159.57 117.24L159.52 117.3L159.47 117.36L159.41 117.41L159.36 117.47L159.3 117.52L159.24 117.57L159.18 117.61L159.12 117.66L159.05 117.7L158.99 117.74L158.92 117.78L158.85 117.81L158.78 117.84L158.71 117.87L158.63 117.9L158.56 117.92L158.48 117.94L158.4 117.96L158.32 117.97L158.24 117.99L158.16 117.99L158.08 118L158 118L118 118L118 158L118 158.08L117.99 158.16L117.99 158.24L117.97 158.32L117.96 158.4L117.94 158.48L117.92 158.56L117.9 158.63L117.87 158.71L117.84 158.78L117.81 158.85L117.78 158.92L117.74 158.99L117.7 159.05L117.66 159.12L117.61 159.18L117.57 159.24L117.52 159.3L117.47 159.36L117.41 159.41L117.36 159.47L117.3 159.52L117.24 159.57L117.18 159.61L117.12 159.66L117.05 159.7L116.99 159.74L116.92 159.78L116.85 159.81L116.78 159.84L116.71 159.87L116.63 159.9L116.56 159.92L116.48 159.94L116.4 159.96L116.32 159.97L116.24 159.99L116.16 159.99L116.08 160L116 160L84 160L83.92 160L83.84 159.99L83.76 159.99L83.68 159.97L83.6 159.96L83.52 159.94L83.44 159.92L83.37 159.9L83.29 159.87L83.22 159.84L83.15 159.81L83.08 159.78L83.01 159.74L82.95 159.7L82.88 159.66L82.82 159.61L82.76 159.57L82.7 159.52L82.64 159.47L82.59 159.41L82.53 159.36L82.48 159.3L82.43 159.24L82.39 159.18L82.34 159.12L82.3 159.05L82.26 158.99L82.22 158.92L82.19 158.85L82.16 158.78L82.13 158.71L82.1 158.63L82.08 158.56L82.06 158.48L82.04 158.4L82.03 158.32L82.01 158.24L82.01 158.16L82 158.08L82 158L82 118L42 118L41.92 118L41.84 117.99L41.76 117.99L41.68 117.97L41.6 117.96L41.52 117.94L41.44 117.92L41.37 117.9L41.29 117.87L41.22 117.84L41.15 117.81L41.08 117.78L41.01 117.74L40.95 117.7L40.88 117.66L40.82 117.61L40.76 117.57L40.7 117.52L40.64 117.47L40.59 117.41L40.53 117.36L40.48 117.3L40.43 117.24L40.39 117.18L40.34 117.12L40.3 117.05L40.26 116.99L40.22 116.92L40.19 116.85L40.16 116.78L40.13 116.71L40.1 116.63L40.08 116.56L40.06 116.48L40.04 116.4L40.03 116.32L40.01 116.24L40.01 116.16L40 116.08L40 116L40 84L40 83.92L40.01 83.84L40.01 83.76L40.03 83.68L40.04 83.6L40.06 83.52L40.08 83.44L40.1 83.37L40.13 83.29L40.16 83.22L40.19 83.15L40.22 83.08L40.26 83.01L40.3 82.95L40.34 82.88L40.39 82.82L40.43 82.76L40.48 82.7L40.53 82.64L40.59 82.59L40.64 82.53L40.7 82.48L40.76 82.43L40.82 82.39L40.88 82.34L40.95 82.3L41.01 82.26L41.08 82.22L41.15 82.19L41.22 82.16L41.29 82.13L41.37 82.1L41.44 82.08L41.52 82.06L41.6 82.04L41.68 82.03L41.76 82.01L41.84 82.01L41.92 82L42 82L82 82L82 42L82 41.92L82.01 41.84L82.01 41.76L82.03 41.68L82.04 41.6L82.06 41.52L82.08 41.44L82.1 41.37L82.13 41.29L82.16 41.22L82.19 41.15L82.22 41.08L82.26 41.01L82.3 40.95L82.34 40.88L82.39 40.82L82.43 40.76L82.48 40.7L82.53 40.64L82.59 40.59L82.64 40.53L82.7 40.48L82.76 40.43L82.82 40.39L82.88 40.34L82.95 40.3L83.01 40.26L83.08 40.22L83.15 40.19L83.22 40.16L83.29 40.13L83.37 40.1L83.44 40.08L83.52 40.06L83.6 40.04L83.68 40.03L83.76 40.01L83.84 40.01L83.92 40L84 40L116 40L116.08 40L116.16 40.01Z" id="b3zdlrdqJP"></path></defs><g><g><g><use xlink:href="#bLPt4gYu" opacity="1" fill="#19194d" fill-opacity="1"></use></g><g><use xlink:href="#b3zdlrdqJP" opacity="1" fill="#e6e6e6" fill-opacity="1"></use></g></g></g></svg>